<svg width="170" height="60" viewBox="0 0 170 60" fill="none" xmlns="http://www.w3.org/2000/svg">
<path d="M4 21.6505C4 12.2617 11.6112 4.65054 21 4.65054H149C158.389 4.65054 166 12.2617 166 21.6505V55.4893H4V21.6505Z" fill="#8F73FF"/>
<path d="M24.4434 16.4761L32.8105 37.3589L41.1777 16.4761H45.5547V42.0699H42.1797V32.1031L42.4961 21.3453L34.0938 42.0699H31.5098L23.125 21.398L23.459 32.1031V42.0699H20.084V16.4761H24.4434ZM60.1973 25.9683C59.7051 25.8863 59.1719 25.8453 58.5977 25.8453C56.4648 25.8453 55.0176 26.7535 54.2559 28.5699V42.0699H51.0039V23.0504H54.168L54.2207 25.2476C55.2871 23.5484 56.7988 22.6988 58.7559 22.6988C59.3887 22.6988 59.8691 22.7808 60.1973 22.9449V25.9683ZM66.7363 42.0699H63.4844V23.0504H66.7363V42.0699ZM63.2207 18.0054C63.2207 17.4781 63.3789 17.0328 63.6953 16.6695C64.0234 16.3062 64.5039 16.1246 65.1367 16.1246C65.7695 16.1246 66.25 16.3062 66.5781 16.6695C66.9062 17.0328 67.0703 17.4781 67.0703 18.0054C67.0703 18.5328 66.9062 18.9722 66.5781 19.3238C66.25 19.6754 65.7695 19.8511 65.1367 19.8511C64.5039 19.8511 64.0234 19.6754 63.6953 19.3238C63.3789 18.9722 63.2207 18.5328 63.2207 18.0054ZM91.293 33.9488C90.9766 36.6558 89.9746 38.7476 88.2871 40.2242C86.6113 41.689 84.3789 42.4214 81.5898 42.4214C78.5664 42.4214 76.1406 41.3375 74.3125 39.1695C72.4961 37.0015 71.5879 34.1011 71.5879 30.4683V28.0074C71.5879 25.6285 72.0098 23.5367 72.8535 21.732C73.709 19.9273 74.916 18.5445 76.4746 17.5836C78.0332 16.6109 79.8379 16.1246 81.8887 16.1246C84.6074 16.1246 86.7871 16.8863 88.4277 18.4097C90.0684 19.9214 91.0234 22.0191 91.293 24.7027H87.9004C87.6074 22.6636 86.9688 21.1871 85.9844 20.273C85.0117 19.3589 83.6465 18.9019 81.8887 18.9019C79.7324 18.9019 78.0391 19.6988 76.8086 21.2925C75.5898 22.8863 74.9805 25.1539 74.9805 28.0953V30.5738C74.9805 33.3511 75.5605 35.5601 76.7207 37.2007C77.8809 38.8414 79.5039 39.6617 81.5898 39.6617C83.4648 39.6617 84.9004 39.2398 85.8965 38.3961C86.9043 37.5406 87.5723 36.0582 87.9004 33.9488H91.293ZM94.5449 32.3843C94.5449 30.5211 94.9082 28.8453 95.6348 27.357C96.373 25.8687 97.3926 24.7203 98.6934 23.9117C100.006 23.1031 101.5 22.6988 103.176 22.6988C105.766 22.6988 107.857 23.5953 109.451 25.3882C111.057 27.1812 111.859 29.566 111.859 32.5425V32.7711C111.859 34.6226 111.502 36.2867 110.787 37.7632C110.084 39.2281 109.07 40.3707 107.746 41.191C106.434 42.0113 104.922 42.4214 103.211 42.4214C100.633 42.4214 98.541 41.525 96.9355 39.732C95.3418 37.939 94.5449 35.566 94.5449 32.6129V32.3843ZM97.8145 32.7711C97.8145 34.8804 98.3008 36.5738 99.2734 37.8511C100.258 39.1285 101.57 39.7672 103.211 39.7672C104.863 39.7672 106.176 39.1226 107.148 37.8336C108.121 36.5328 108.607 34.7164 108.607 32.3843C108.607 30.2984 108.109 28.6109 107.113 27.3218C106.129 26.0211 104.816 25.3707 103.176 25.3707C101.57 25.3707 100.275 26.0093 99.291 27.2867C98.3066 28.564 97.8145 30.3922 97.8145 32.7711ZM115.146 32.4019C115.146 29.4839 115.838 27.1402 117.221 25.3707C118.604 23.5894 120.414 22.6988 122.652 22.6988C124.879 22.6988 126.643 23.4605 127.943 24.9839V15.0699H131.195V42.0699H128.207L128.049 40.0308C126.748 41.6246 124.938 42.4214 122.617 42.4214C120.414 42.4214 118.615 41.5191 117.221 39.7144C115.838 37.9097 115.146 35.5543 115.146 32.648V32.4019ZM118.398 32.7711C118.398 34.9273 118.844 36.6148 119.734 37.8336C120.625 39.0523 121.855 39.6617 123.426 39.6617C125.488 39.6617 126.994 38.7359 127.943 36.8843V28.148C126.971 26.355 125.477 25.4586 123.461 25.4586C121.867 25.4586 120.625 26.0738 119.734 27.3043C118.844 28.5347 118.398 30.357 118.398 32.7711ZM144.15 42.4214C141.572 42.4214 139.475 41.5777 137.857 39.8902C136.24 38.191 135.432 35.9234 135.432 33.0875V32.4898C135.432 30.6031 135.789 28.9214 136.504 27.4449C137.23 25.9566 138.238 24.7964 139.527 23.9644C140.828 23.1207 142.234 22.6988 143.746 22.6988C146.219 22.6988 148.141 23.5132 149.512 25.1422C150.883 26.7711 151.568 29.1031 151.568 32.1382V33.4918H138.684C138.73 35.3668 139.275 36.8843 140.318 38.0445C141.373 39.1929 142.709 39.7672 144.326 39.7672C145.475 39.7672 146.447 39.5328 147.244 39.064C148.041 38.5953 148.738 37.9742 149.336 37.2007L151.322 38.7476C149.729 41.1968 147.338 42.4214 144.15 42.4214ZM143.746 25.3707C142.434 25.3707 141.332 25.8511 140.441 26.8121C139.551 27.7613 139 29.0972 138.789 30.8199H148.316V30.5738C148.223 28.9214 147.777 27.6441 146.98 26.7418C146.184 25.8277 145.105 25.3707 143.746 25.3707Z" fill="white"/>
<path d="M166 55.4893V59.4893H170V55.4893H166ZM4 55.4893H0V59.4893H4V55.4893ZM21 8.65054H149V0.650543H21V8.65054ZM162 21.6505V55.4893H170V21.6505H162ZM166 51.4893H4V59.4893H166V51.4893ZM8 55.4893V21.6505H0V55.4893H8ZM149 8.65054C156.18 8.65054 162 14.4708 162 21.6505H170C170 10.0526 160.598 0.650543 149 0.650543V8.65054ZM21 0.650543C9.40202 0.650543 0 10.0525 0 21.6505H8C8 14.4708 13.8203 8.65054 21 8.65054V0.650543Z" fill="#FFC38C"/>
</svg>
