<svg width="73" height="73" viewBox="0 0 73 73" fill="none" xmlns="http://www.w3.org/2000/svg">
<path d="M36.5 4.5625C18.8631 4.5625 4.5625 18.8631 4.5625 36.5C4.5625 54.1369 18.8631 68.4375 36.5 68.4375C54.1369 68.4375 68.4375 54.1369 68.4375 36.5C68.4375 18.8631 54.1369 4.5625 36.5 4.5625ZM51.8485 28.6368C51.8699 28.9719 51.8699 29.3212 51.8699 29.6634C51.8699 40.1286 43.8998 52.1836 29.3354 52.1836C24.8442 52.1836 20.681 50.879 17.1735 48.6334C17.8151 48.7047 18.4282 48.7332 19.0841 48.7332C22.7911 48.7332 26.1987 47.4785 28.9148 45.3541C25.4359 45.2828 22.5131 43.0016 21.515 39.8648C22.7341 40.0431 23.8319 40.0431 25.0866 39.7223C23.2953 39.3583 21.6852 38.3855 20.5299 36.969C19.3746 35.5525 18.7454 33.7797 18.749 31.9518V31.852C19.797 32.4437 21.0303 32.8072 22.3206 32.8571C21.2359 32.1342 20.3463 31.1548 19.7308 30.0058C19.1152 28.8567 18.7927 27.5736 18.7918 26.27C18.7918 24.7943 19.1768 23.447 19.8683 22.2778C21.8565 24.7254 24.3376 26.7273 27.1502 28.1532C29.9628 29.5792 33.044 30.3973 36.1935 30.5545C35.0742 25.1722 39.0949 20.8164 43.9283 20.8164C46.2096 20.8164 48.2627 21.7717 49.7099 23.3115C51.4992 22.9765 53.2102 22.3063 54.7357 21.4081C54.144 23.2402 52.9036 24.7872 51.2568 25.7639C52.8537 25.5928 54.3936 25.1508 55.8193 24.5306C54.7429 26.1132 53.3955 27.5176 51.8485 28.6368Z" fill="#00ACED"/>
</svg>
