<svg width="73" height="73" viewBox="0 0 73 73" fill="none" xmlns="http://www.w3.org/2000/svg">
<path d="M42.351 35.8904L34.1531 32.0652C33.4377 31.7331 32.85 32.1054 32.85 32.8974V40.1025C32.85 40.8946 33.4377 41.2669 34.1531 40.9347L42.3473 37.1095C43.0664 36.7737 43.0664 36.2262 42.351 35.8904ZM36.5 1.46C17.1477 1.46 1.46002 17.1477 1.46002 36.5C1.46002 55.8523 17.1477 71.54 36.5 71.54C55.8523 71.54 71.54 55.8523 71.54 36.5C71.54 17.1477 55.8523 1.46 36.5 1.46ZM36.5 50.735C18.5639 50.735 18.25 49.118 18.25 36.5C18.25 23.8819 18.5639 22.265 36.5 22.265C54.4361 22.265 54.75 23.8819 54.75 36.5C54.75 49.118 54.4361 50.735 36.5 50.735Z" fill="#BB0000"/>
</svg>
